# xmcd CD database file
#
# Track frame offsets:
#	150
#	17804
#	48396
#	63654
#	78277
#	97702
#	115164
#	183535
#	213234
#
# Disc length: 3084 seconds
#
# Revision: 0
# Processed by: cddbd v1.5.2PL0 Copyright (c) Steve Scherf et al.
# Submitted via: CDex 1.51
#
DISCID=6f0c0a09
DTITLE=B.B. KING - Live At The Paramount Theatre, Seattle
DYEAR=2018
DGENRE=Blues
TTITLE0=Introduction - Everyday I Have The Blues
TTITLE1=How Blue Can You Get
TTITLE2=Help The Poor
TTITLE3=Whole Lotta Lovin'
TTITLE4=Rock Me Baby
TTITLE5=Hummingbird
TTITLE6=Sweet Sixteen
TTITLE7=The Thrill Is Gone
TTITLE8=Just Like A Woman
EXTD=YEAR: 2018
EXTT0=
EXTT1=
EXTT2=
EXTT3=
EXTT4=
EXTT5=
EXTT6=
EXTT7=
EXTT8=
PLAYORDER=
